# xmcd
#
# Track frame offsets: 
#        150
#        15350
#        33289
#        55416
#        74261
#        89952
#        111961
#        133082
#        151445
#        168062
#        183500
#        198849
#        221646
#        240489
#        257764
#
# Disc length: 3674 seconds
#
# Revision: 1
# Processed by: cddbd v1.5.2PL0 Copyright (c) Steve Scherf et al.
# Submitted via: ExactAudioCopy v0.99pb4
#
DISCID=d00e580f
DTITLE=Виктор Королёв - Укушу
DYEAR=2003
DGENRE=Шансон
TTITLE0=Васильковое платье
TTITLE1=Укушу
TTITLE2=Розовый тюльпанчик
TTITLE3=Увези меня
TTITLE4=Никакая
TTITLE5=Ты уехала в Америку
TTITLE6=Ой-ё-ёй
TTITLE7=Маринка
TTITLE8=С днём рождения, друг
TTITLE9=Погадай
TTITLE10=Плачь, девочка, плачь...
TTITLE11=За тебя, родная!
TTITLE12=Горькая калина
TTITLE13=Зачем ты бросила меня
TTITLE14=Укушу (караоке)
EXTD=
EXTT0=
EXTT1=
EXTT2=
EXTT3=
EXTT4=
EXTT5=
EXTT6=
EXTT7=
EXTT8=
EXTT9=
EXTT10=
EXTT11=
EXTT12=
EXTT13=
EXTT14=
PLAYORDER=
